<mxfile host="app.diagrams.net" modified="2021-10-15T07:00:00.157Z" agent="5.0 (Windows NT 10.0; Win64; x64) AppleWebKit/537.36 (KHTML, like Gecko) Chrome/94.0.4606.81 Safari/537.36" etag="X7wM4cvhjVAtvwZQJiPZ" version="14.9.3" type="github">
  <diagram name="Page-1" id="822b0af5-4adb-64df-f703-e8dfc1f81529">
    <mxGraphModel dx="1422" dy="794" grid="1" gridSize="10" guides="1" tooltips="1" connect="1" arrows="1" fold="1" page="1" pageScale="1" pageWidth="1100" pageHeight="850" background="none" math="0" shadow="0">
      <root>
        <mxCell id="0" />
        <mxCell id="1" parent="0" />
        <mxCell id="oru_Rm-SjFeuuWK1PNME-1" value="MessageService" style="ellipse;whiteSpace=wrap;html=1;" vertex="1" parent="1">
          <mxGeometry x="510" y="230" width="120" height="80" as="geometry" />
        </mxCell>
        <mxCell id="oru_Rm-SjFeuuWK1PNME-2" value="robot manager" style="ellipse;whiteSpace=wrap;html=1;aspect=fixed;" vertex="1" parent="1">
          <mxGeometry x="870" y="230" width="80" height="80" as="geometry" />
        </mxCell>
        <mxCell id="oru_Rm-SjFeuuWK1PNME-4" value="Robots" style="shape=umlActor;verticalLabelPosition=bottom;verticalAlign=top;html=1;outlineConnect=0;" vertex="1" parent="1">
          <mxGeometry x="210" y="245" width="30" height="50" as="geometry" />
        </mxCell>
        <mxCell id="oru_Rm-SjFeuuWK1PNME-9" value="" style="endArrow=classic;startArrow=classic;html=1;entryX=0;entryY=0.5;entryDx=0;entryDy=0;" edge="1" parent="1" target="oru_Rm-SjFeuuWK1PNME-1">
          <mxGeometry width="50" height="50" relative="1" as="geometry">
            <mxPoint x="250" y="270" as="sourcePoint" />
            <mxPoint x="500" y="280" as="targetPoint" />
          </mxGeometry>
        </mxCell>
        <mxCell id="oru_Rm-SjFeuuWK1PNME-10" value="" style="endArrow=classic;startArrow=classic;html=1;" edge="1" parent="1">
          <mxGeometry width="50" height="50" relative="1" as="geometry">
            <mxPoint x="640" y="270" as="sourcePoint" />
            <mxPoint x="870" y="270" as="targetPoint" />
          </mxGeometry>
        </mxCell>
        <mxCell id="oru_Rm-SjFeuuWK1PNME-11" value="dds/mqtt" style="text;html=1;align=center;verticalAlign=middle;resizable=0;points=[];autosize=1;strokeColor=none;" vertex="1" parent="1">
          <mxGeometry x="340" y="250" width="60" height="20" as="geometry" />
        </mxCell>
        <mxCell id="oru_Rm-SjFeuuWK1PNME-13" value="redis channel/rabbit mq&lt;br&gt;" style="text;html=1;align=center;verticalAlign=middle;resizable=0;points=[];autosize=1;strokeColor=none;" vertex="1" parent="1">
          <mxGeometry x="650" y="250" width="140" height="20" as="geometry" />
        </mxCell>
        <mxCell id="oru_Rm-SjFeuuWK1PNME-16" value="" style="edgeStyle=isometricEdgeStyle;endArrow=none;html=1;" edge="1" parent="1">
          <mxGeometry width="50" height="100" relative="1" as="geometry">
            <mxPoint x="250" y="310" as="sourcePoint" />
            <mxPoint x="891.11" y="310" as="targetPoint" />
            <Array as="points">
              <mxPoint x="531.11" y="470" />
            </Array>
          </mxGeometry>
        </mxCell>
        <mxCell id="oru_Rm-SjFeuuWK1PNME-17" value="http request&lt;br&gt;" style="text;html=1;align=center;verticalAlign=middle;resizable=0;points=[];autosize=1;strokeColor=none;" vertex="1" parent="1">
          <mxGeometry x="530" y="430" width="80" height="20" as="geometry" />
        </mxCell>
        <mxCell id="oru_Rm-SjFeuuWK1PNME-18" value="The necessity of using dds,ï¼Ÿ" style="text;html=1;align=center;verticalAlign=middle;resizable=0;points=[];autosize=1;strokeColor=none;" vertex="1" parent="1">
          <mxGeometry x="255" y="200" width="170" height="20" as="geometry" />
        </mxCell>
        <mxCell id="oru_Rm-SjFeuuWK1PNME-19" value="redis channel, can be replaced with independent message middleware" style="text;html=1;align=center;verticalAlign=middle;resizable=0;points=[];autosize=1;strokeColor=none;" vertex="1" parent="1">
          <mxGeometry x="560" y="190" width="390" height="20" as="geometry" />
        </mxCell>
        <mxCell id="oru_Rm-SjFeuuWK1PNME-20" value="Security, a temporary access token is issued by the robot manager through a message" style="text;html=1;align=center;verticalAlign=middle;resizable=0;points=[];autosize=1;strokeColor=none;" vertex="1" parent="1">
          <mxGeometry x="330" y="340" width="480" height="20" as="geometry" />
        </mxCell>
        <mxCell id="oru_Rm-SjFeuuWK1PNME-21" value="&lt;ol style=&quot;margin-top: 0cm&quot; start=&quot;1&quot; type=&quot;1&quot;&gt;&lt;br&gt; &lt;li class=&quot;MsoNormal&quot; style=&quot;color: #333333 ; margin-top: 3.0pt ; margin-bottom: 3.0pt ; text-align: left ; vertical-align: baseline&quot;&gt;&lt;span lang=&quot;EN-US&quot; style=&quot;font-size: 11.0pt ; font-family: &amp;#34;helvetica&amp;#34; , sans-serif&quot;&gt;The message is concerned about real-time, and the&lt;br&gt;     message should be kept as concise as possible&lt;/span&gt;&lt;/li&gt;&lt;li class=&quot;MsoNormal&quot; style=&quot;margin-top: 3pt ; margin-bottom: 3pt ; text-align: left ; vertical-align: baseline&quot;&gt;&lt;span lang=&quot;EN-US&quot;&gt;&lt;font color=&quot;#333333&quot; face=&quot;helvetica, sans-serif&quot;&gt;&lt;span style=&quot;font-size: 14.6667px&quot;&gt;There was no http request channel before, files and messages are mixed together, and files may cause message blockage&lt;/span&gt;&lt;/font&gt;&lt;br&gt;&lt;/span&gt;&lt;/li&gt;&lt;br&gt;&lt;/ol&gt;" style="text;whiteSpace=wrap;html=1;" vertex="1" parent="1">
          <mxGeometry x="280" y="550" width="400" height="130" as="geometry" />
        </mxCell>
      </root>
    </mxGraphModel>
  </diagram>
</mxfile>
